<?xml version="1.0" encoding="UTF-8"?>
<!DOCTYPE svg PUBLIC "-//W3C//DTD SVG 1.1//EN" "http://www.w3.org/Graphics/SVG/1.1/DTD/svg11.dtd">
<!-- Creator: CorelDRAW 2020 (64-Bit) -->
<svg xmlns="http://www.w3.org/2000/svg" xml:space="preserve" width="210mm" height="297mm" version="1.1" style="shape-rendering:geometricPrecision; text-rendering:geometricPrecision; image-rendering:optimizeQuality; fill-rule:evenodd; clip-rule:evenodd"
viewBox="0 0 21000 29700"
 xmlns:xlink="http://www.w3.org/1999/xlink"
 xmlns:xodm="http://www.corel.com/coreldraw/odm/2003">
 <defs>
  <style type="text/css">
   <![CDATA[
    .fil2 {fill:#1100FF}
    .fil0 {fill:#212122}
    .fil1 {fill:yellow}
   ]]>
  </style>
 </defs>
 <g id="Слой_x0020_1">
  <metadata id="CorelCorpID_0Corel-Layer"/>
  <path class="fil0" d="M13705.55 14655.28c46.14,-24.91 108.9,-55.2 149.17,-86.71 43.99,-34.43 84.74,-86.93 135.4,-106.16 -59.58,132.12 -10.61,97.6 120.58,244.21 29.85,33.37 29.61,135.46 -0.01,168.52 -26.62,29.71 -85.8,69.12 -129,73.2l-6.7 -172.02c-50.19,-50.96 -217.8,-64.55 -269.44,-121.04zm1092.32 -641.78l208.72 1.09 -0.21 139.4 -209.26 -0.11 0.75 -140.38zm241.92 87.22l101.63 1.63 -47.37 66.09c11.47,34.04 36,37.73 43.65,74.81l-184.55 -1.58 2.11 -54.48 80.36 -6.53 4.17 -79.94zm146.24 171.94c13.98,-52.78 -48.76,-59.47 -46.97,-103.7 1.76,-43.46 63.5,-49.39 44.68,-95.63 -40.1,-15.09 -98.52,-2.29 -144.89,-8.18l-5.6 -82.59 -232.35 -1.27c-21.81,-36.31 8.41,-29.89 -32.66,-29.62 -14.6,34.37 -3.28,251.82 -6.26,309.9 -38.75,26.12 -139.92,46.5 -188.77,24.82 -68.39,-30.35 -95.87,-61.3 -179.09,-41.73l-67.36 147.49c-19.2,-49.09 9.73,-136.34 10.46,-149.52 -35.35,-4.69 -32.61,-8.19 -66.08,4.86 0.46,34.23 11.44,16.94 14.76,64.29 1.57,22.44 -0.48,55.4 -3.7,79.3l-73.49 -149.78c-101.66,-9.01 -92.11,39.93 -157.77,99.99 -136.39,124.75 -97.07,101.7 -263.84,226.74 -40.53,30.38 -141.26,68.13 -158.79,91.47 17.75,40.2 112.9,61.17 156.83,76.9 49.44,17.71 121.23,39.13 159.76,67.67 -0.71,53.58 -14.84,134.57 8,179.7 66.79,23.63 128.75,-47.29 176.05,-69.1 0.48,53.2 0.23,106.49 0.19,159.7 -0.02,40.4 -15.28,116.42 20.02,137.1 28.05,-16.16 18.14,-48.48 17.64,-86.22l-2.59 -508.08c-4.48,-121.53 26.69,-160.3 -24.78,-167.61 -23.76,34.13 -10.75,168.11 -10.19,217.41 -25.44,-11.27 -108.29,-98.37 -126.77,-124.85 -3.02,-55.93 46.86,-101.79 78.57,-146.28 25.79,-36.18 53.44,-107.29 93.52,-120.23 61.58,31.22 54.71,171.26 126.35,203.74 49.12,-10.85 48.3,-45.99 68.39,-90.86 16.18,-36.16 32.55,-74.96 50.69,-109.15 78.68,-10.99 125.54,52.83 187.2,56.8 61.74,3.97 122.22,-38.83 205.55,-25.58l-3.6 52.88c-44.86,6.18 -55.94,-0.19 -101.42,15.99 -187.12,66.57 -139.76,-2.2 -256.59,6.25 -13.16,46.58 -6.57,601.21 -10,739.58 -1.01,40.4 -10.88,69.16 21.3,86.38 36.25,-29.35 8.95,-655.99 17.18,-786 48.25,5.16 101.73,29.91 148.92,20.17 41.73,-8.61 87.13,-32.37 134.61,-42.11l1.53 801.96 31.63 -1.68 -0.59 -791.19c40.17,-25.51 55.45,-12.15 55.53,-74.94 0.07,-59.56 -13.27,-55.04 -54.55,-74.22l0.01 -75.8 122.03 5.32c9.33,95.2 -17.09,81.99 93.92,80.86 56.34,-0.58 117.97,2.58 173.38,-1.35z"/>
  <path class="fil1" d="M13705.55 14655.28c51.64,56.49 219.25,70.08 269.44,121.04l6.7 172.02c43.2,-4.08 102.38,-43.49 129,-73.2 29.62,-33.06 29.86,-135.15 0.01,-168.52 -131.19,-146.61 -180.16,-112.09 -120.58,-244.21 -50.66,19.23 -91.41,71.73 -135.4,106.16 -40.27,31.51 -103.03,61.8 -149.17,86.71z"/>
  <path class="fil0" d="M14259.79 15208.33c36.53,-1.15 29.25,-14.82 30.57,-57.14l16.01 -246.67 11.46 246.36c1.55,42.34 -5.86,49.16 26.52,59.66 29.94,-37.96 2.54,-335.87 -10.89,-398.69l-60.24 6.42c-11.37,40.3 -27.48,363.66 -13.43,390.06z"/>
  <polygon class="fil2" points="14797.12,14153.88 15006.38,14153.99 15006.59,14014.59 14797.87,14013.5 "/>
  <path class="fil0" d="M14274.66 13969.98c125.26,-48.71 153.92,167.45 57.59,195.16 -124.64,35.86 -151.64,-158.6 -57.59,-195.16zm-89.62 130.72c26.65,162.65 270.42,138.54 239.06,-64.65 -25.91,-167.88 -272.78,-141.18 -239.06,64.65z"/>
  <path class="fil1" d="M15035.62 14180.66l-80.36 6.53 -2.11 54.48 184.55 1.58c-7.65,-37.08 -32.18,-40.77 -43.65,-74.81l47.37 -66.09 -101.63 -1.63 -4.17 79.94z"/>
  <path class="fil0" d="M13982.74 15423.06c61.55,-51.29 114.57,55.12 57,92 -51.67,33.11 -120.39,-39.18 -57,-92zm-44.08 64.08c24.43,102.64 177.49,61.37 143.45,-47.72 -26.71,-85.62 -169.29,-60.87 -143.45,47.72z"/>
  <path class="fil0" d="M14301.56 15542.89c14.67,-28.5 6.19,-64.82 11.28,-102.8 27.77,36.01 52.81,92.38 94.37,103.91l0.87 -123.03c-7.51,-49.23 3.44,-7.42 -13.38,-27.34 -15.23,27.81 -7.24,64.54 -11.18,102.14 -16.11,-18.46 -28.35,-34.29 -42.4,-54.48 -22.62,-32.5 -18.03,-38.45 -52.35,-49.29 -0.04,26.71 0.08,53.62 -0.32,80.32 -1.19,80.16 1.64,56.97 13.11,70.57z"/>
  <path class="fil0" d="M14742.3 15409.86l45.4 7.67c12.39,32.88 9.56,6.53 1.98,39.31l-48.88 4.04 1.5 -51.02zm67.26 132.51c14.79,-21.15 17.57,36.95 -1.58,-58.94 -5.32,-26.62 10.66,-21.14 7.34,-52.32 -4.76,-44.8 -61.72,-51.05 -90.14,-33.89 -12.2,25.95 -16.76,131.22 7.64,147.05 14.49,-27.62 -1.6,-26.23 16.08,-61.31 72.02,9.95 23.77,19.43 60.66,59.41z"/>
  <path class="fil0" d="M14471.86 15413.32c93.89,-6.46 98.95,112.61 -1.67,109.6l1.67 -109.6zm-18.37 126.85c144.5,53.95 140.8,-200.22 -4.17,-144.91l4.17 144.91z"/>
  <path class="fil0" d="M14132.23 15392.49c-15.5,18.84 -7.6,-6.46 -13.9,28.43 -6.87,38.07 -4.4,139.4 81.5,122.74 68.59,-13.31 55.62,-142.42 34,-151.84 -20.66,34.87 18.01,132.24 -50.76,131.41 -64.51,-0.78 -31.32,-90.43 -50.84,-130.74z"/>
  <path class="fil0" d="M14619.4 15423.95c26.56,-21.82 11.31,-8.65 46.45,-13.81 36.98,-5.43 12.62,7.18 25.45,-14.04 -24.17,-11.23 -60.37,-8.14 -92.47,-3.62l4.29 150.88c28.35,3.37 65.5,5.88 87.65,-4.15 -18.25,-32.17 -28.67,-0.31 -71.77,-23.47l-0.42 -27.82c36.07,-20.55 29.6,-1.13 63.3,-15.8 -17.29,-31.83 -20.45,-0.32 -63.44,-23.87l0.96 -24.3z"/>
  <path class="fil0" d="M13838.52 15412.57l70.74 -8.61c-10.92,-23.67 -57.16,-16.71 -83.5,-11.95 -11.61,20.6 -13.98,93.14 -9.93,123.1 5.08,37.51 3.23,16.49 12.25,30.37 15.25,-29.06 8.48,-28.71 10.42,-65.63l62.23 -7.55c-11.74,-25.77 -25.3,-11.22 -63.09,-17.83l0.88 -41.9z"/>
 </g>
</svg>
